<?xml version="1.0" standalone="no"?>
<!DOCTYPE svg PUBLIC "-//W3C//DTD SVG 20010904//EN"
 "http://www.w3.org/TR/2001/REC-SVG-20010904/DTD/svg10.dtd">
<svg version="1.0" xmlns="http://www.w3.org/2000/svg"
 width="256.000000pt" height="256.000000pt" viewBox="0 0 256.000000 256.000000"
 preserveAspectRatio="xMidYMid meet">
<metadata>
Created by potrace 1.14, written by Peter Selinger 2001-2017
</metadata>
<g transform="translate(0.000000,256.000000) scale(0.100000,-0.100000)"
fill="#000000" stroke="none">
<path d="M1415 2255 c-357 -52 -661 -97 -674 -102 -13 -4 -33 -20 -43 -34 -19
-25 -20 -48 -19 -568 l0 -541 -22 5 c-45 11 -194 11 -243 0 -146 -33 -254
-138 -287 -280 -16 -70 -14 -217 3 -272 54 -171 203 -273 400 -273 192 0 327
86 392 251 21 53 22 67 24 567 0 282 4 515 7 519 6 5 306 50 647 97 25 3 119
17 210 30 91 13 166 23 168 22 2 -3 4 -256 3 -402 l-1 -70 -117 4 c-102 4
-127 1 -183 -18 -105 -35 -173 -97 -223 -200 -31 -63 -32 -70 -32 -195 0 -127
1 -132 32 -196 42 -84 101 -144 183 -182 108 -52 290 -50 404 4 64 30 138 105
172 175 l29 59 3 805 c1 443 0 815 -3 828 -9 36 -62 62 -125 61 -30 -1 -347
-43 -705 -94z"/>
</g>
</svg>
